<?xml version="1.0" standalone="no"?>
<!DOCTYPE svg PUBLIC "-//W3C//DTD SVG 20010904//EN"
 "http://www.w3.org/TR/2001/REC-SVG-20010904/DTD/svg10.dtd">
<svg version="1.0" xmlns="http://www.w3.org/2000/svg"
 width="374.000000pt" height="339.000000pt" viewBox="0 0 374.000000 339.000000"
 preserveAspectRatio="xMidYMid meet">

<g transform="translate(0.000000,339.000000) scale(0.100000,-0.100000)"
fill="#000000" stroke="none">
<path d="M0 1695 l0 -1695 1870 0 1870 0 0 1695 0 1695 -1870 0 -1870 0 0
-1695z m2069 1561 c7 -5 11 -19 8 -32 -5 -26 8 -34 58 -34 27 0 34 4 37 23 5
33 40 33 111 -1 34 -16 84 -32 112 -36 61 -8 92 -34 76 -64 -9 -16 -7 -22 12
-35 42 -27 65 -30 72 -7 11 34 51 25 103 -23 26 -24 73 -56 105 -71 66 -32 76
-46 56 -83 -12 -23 -11 -27 14 -49 29 -25 57 -32 57 -14 0 6 11 10 25 10 20 0
32 -11 53 -46 15 -26 53 -72 85 -103 60 -61 74 -99 38 -108 -17 -4 -18 -9 -10
-31 18 -46 38 -63 60 -49 14 8 24 9 36 1 18 -11 41 -66 42 -102 1 -12 17 -47
37 -76 41 -62 44 -109 8 -114 -14 -2 -21 -9 -19 -20 15 -74 15 -74 41 -69 38
7 56 -28 54 -105 -1 -35 5 -86 14 -115 18 -65 12 -91 -23 -95 -23 -3 -26 -8
-29 -50 -3 -44 -2 -47 25 -50 23 -2 29 -8 31 -34 2 -18 -4 -49 -14 -70 -9 -22
-18 -72 -19 -113 -3 -82 -20 -110 -55 -91 -15 8 -21 3 -34 -24 -22 -46 -20
-64 7 -68 32 -4 27 -56 -12 -110 -17 -24 -38 -67 -46 -96 -20 -67 -47 -97 -75
-82 -27 14 -56 -2 -64 -36 -5 -20 -3 -30 8 -36 27 -15 18 -46 -25 -85 -64 -58
-82 -77 -111 -122 -21 -30 -35 -41 -53 -41 -14 0 -28 6 -31 14 -8 20 -48 2
-68 -30 -13 -19 -13 -24 -1 -34 8 -7 15 -19 15 -26 0 -17 -50 -49 -100 -65
-19 -7 -53 -29 -76 -49 -23 -21 -51 -41 -63 -45 -24 -7 -51 9 -51 31 0 9 -8
10 -31 4 -45 -13 -56 -26 -51 -59 5 -36 -11 -46 -93 -56 -33 -4 -76 -15 -95
-25 -76 -37 -120 -33 -120 11 0 14 -7 19 -29 19 -44 0 -61 -10 -61 -36 0 -36
-30 -47 -98 -34 -31 6 -83 7 -114 4 -81 -9 -108 -1 -108 35 0 31 -14 41 -60
41 -22 0 -29 -5 -32 -23 -4 -32 -46 -33 -105 -3 -27 13 -75 29 -106 35 -82 15
-100 27 -94 61 7 31 -12 53 -50 63 -16 3 -24 0 -28 -13 -13 -42 -49 -34 -115
26 -21 19 -62 47 -91 62 -64 33 -79 53 -61 83 26 41 -40 99 -74 65 -22 -22
-48 -6 -84 52 -33 53 -34 54 -89 105 -43 39 -54 80 -26 91 21 7 18 36 -5 66
-17 23 -21 24 -41 11 -21 -12 -25 -11 -45 12 -12 14 -27 49 -34 78 -7 29 -26
73 -41 98 -35 54 -38 100 -9 108 22 6 27 41 10 74 -8 14 -17 18 -35 13 -33 -8
-45 19 -45 100 0 37 -7 93 -17 126 -18 67 -10 90 34 90 23 0 24 3 21 48 -2 33
-7 46 -17 44 -39 -8 -53 50 -26 115 8 19 15 62 15 94 0 84 13 111 50 107 36
-3 50 13 50 58 0 23 -5 33 -20 37 -31 8 -25 49 14 101 19 24 40 64 46 88 24
88 55 119 88 86 15 -15 35 2 52 43 11 26 10 31 -5 43 -27 19 -12 55 38 94 23
18 60 59 82 90 44 61 66 73 94 48 15 -14 20 -14 49 4 32 20 41 43 22 55 -31
19 7 64 78 91 26 9 67 34 91 56 50 44 95 51 106 17 4 -13 12 -18 22 -15 8 3
20 6 26 6 7 0 20 7 30 14 15 11 16 19 8 34 -19 35 7 54 85 61 40 4 87 16 111
29 59 31 101 29 109 -4 6 -22 11 -25 48 -22 32 2 42 7 44 23 2 11 5 25 7 31 4
14 282 13 304 0z"/>
<path d="M1784 3245 c-10 -24 0 -27 46 -15 49 13 48 15 -3 24 -29 5 -39 4 -43
-9z"/>
<path d="M1976 3241 c17 -16 73 -30 79 -20 12 18 -7 29 -48 29 -24 0 -37 -4
-31 -9z"/>
<path d="M1588 3223 c-33 -8 -18 -23 22 -23 29 0 40 4 40 15 0 15 -25 18 -62
8z"/>
<path d="M1852 3217 c-24 -7 -43 -16 -43 -22 1 -23 221 -28 221 -5 0 11 -88
40 -114 39 -12 -1 -40 -6 -64 -12z"/>
<path d="M2190 3205 c0 -11 11 -15 43 -15 41 1 42 1 17 15 -33 19 -60 19 -60
0z"/>
<path d="M1468 3158 c-73 -39 -74 -53 -5 -44 57 8 167 44 167 56 0 8 -51 20
-84 20 -11 0 -47 -15 -78 -32z"/>
<path d="M1392 3169 c-13 -5 -20 -13 -17 -19 9 -15 27 -12 60 10 30 20 30 20
5 19 -14 0 -35 -4 -48 -10z"/>
<path d="M1675 3160 c-27 -11 59 -11 95 0 20 6 14 8 -25 8 -27 0 -59 -3 -70
-8z"/>
<path d="M2200 3161 c0 -15 113 -59 169 -67 63 -8 62 0 -6 45 -39 26 -56 31
-105 31 -32 0 -58 -4 -58 -9z"/>
<path d="M2080 3149 c25 -4 61 -11 80 -13 l35 -5 -30 14 c-16 8 -52 14 -80 13
l-50 0 45 -9z"/>
<path d="M2380 3156 c0 -2 14 -14 31 -27 23 -16 33 -19 42 -10 7 7 7 14 2 20
-11 10 -75 25 -75 17z"/>
<path d="M1875 3120 c16 -16 33 -30 38 -30 17 0 67 41 62 51 -4 5 -34 9 -67 9
l-62 0 29 -30z"/>
<path d="M1730 3134 c-8 -1 -35 -5 -60 -9 -40 -5 -48 -10 -72 -49 l-26 -43 37
-18 c20 -10 59 -25 87 -35 l50 -18 77 54 77 54 -39 35 c-37 34 -73 42 -131 29z"/>
<path d="M1978 3109 c-21 -17 -38 -34 -38 -39 0 -5 31 -33 69 -63 l70 -54 85
30 c47 16 86 34 86 38 0 5 -11 27 -24 48 -23 36 -30 40 -93 50 -37 6 -79 14
-93 16 -18 4 -36 -3 -62 -26z"/>
<path d="M1212 3090 c-41 -25 -41 -33 1 -25 39 9 55 21 41 35 -6 6 -21 3 -42
-10z"/>
<path d="M1508 3098 c-37 -13 -35 -21 6 -41 l34 -16 27 35 26 34 -33 -1 c-18
0 -45 -5 -60 -11z"/>
<path d="M2240 3091 c0 -19 31 -61 46 -61 18 0 64 22 64 30 0 8 -41 26 -82 36
-18 4 -28 2 -28 -5z"/>
<path d="M1374 3080 c-30 -7 -104 -47 -104 -56 0 -4 92 31 121 47 11 5 19 12
19 14 0 3 -1 5 -2 4 -2 -1 -17 -4 -34 -9z"/>
<path d="M1350 3032 c-82 -36 -84 -38 -99 -84 -8 -27 -12 -50 -9 -54 3 -3 46
-8 95 -11 l89 -6 56 74 57 74 -51 23 c-28 12 -51 22 -52 21 0 0 -39 -17 -86
-37z"/>
<path d="M2570 3057 c0 -7 18 -18 40 -24 46 -12 49 -9 18 18 -27 21 -58 25
-58 6z"/>
<path d="M1846 3008 c-39 -27 -71 -50 -73 -52 -2 -2 28 -15 66 -29 l69 -25 71
20 c80 24 81 22 -7 90 l-57 45 -69 -49z"/>
<path d="M2421 3056 c2 -2 33 -18 69 -36 65 -32 65 -32 41 -6 -14 14 -41 30
-60 36 -37 10 -57 13 -50 6z"/>
<path d="M1179 3038 c-36 -9 -129 -92 -117 -104 10 -10 73 17 129 56 80 55 76
72 -12 48z"/>
<path d="M2337 3027 l-47 -22 36 -55 c71 -107 75 -109 202 -93 l54 6 -7 36
c-3 20 -8 43 -11 51 -3 13 -51 39 -175 96 -3 2 -26 -7 -52 -19z"/>
<path d="M2605 2981 c45 -44 151 -106 159 -93 2 4 -13 29 -35 55 -31 35 -52
50 -91 62 -74 22 -77 19 -33 -24z"/>
<path d="M1502 2945 c-29 -35 -52 -67 -52 -70 0 -3 35 -5 78 -5 71 0 82 3 128
33 28 17 51 37 51 42 1 9 -119 63 -143 64 -6 1 -34 -28 -62 -64z"/>
<path d="M1037 2984 c-16 -8 -27 -20 -24 -27 7 -22 25 -17 47 13 24 33 19 37
-23 14z"/>
<path d="M2195 2973 c-38 -14 -74 -29 -78 -33 -5 -4 16 -27 47 -49 56 -41 57
-42 132 -39 l75 3 -51 73 c-28 39 -52 72 -53 71 -1 0 -33 -12 -72 -26z"/>
<path d="M1175 2949 c-53 -33 -49 -49 11 -49 25 0 33 5 38 24 3 13 9 31 12 40
9 23 -6 20 -61 -15z"/>
<path d="M2762 2931 c25 -32 48 -40 48 -17 0 17 -37 46 -58 46 -9 0 -6 -9 10
-29z"/>
<path d="M2595 2913 c4 -21 9 -41 11 -45 4 -6 74 1 83 8 6 5 -39 42 -73 60
l-29 16 8 -39z"/>
<path d="M1690 2902 l-55 -37 55 -3 c50 -3 151 12 174 26 8 5 -45 29 -99 45
-14 5 -38 -6 -75 -31z"/>
<path d="M2008 2912 c-27 -8 -48 -19 -48 -22 0 -15 117 -41 168 -38 l53 3 -50
38 c-56 41 -57 41 -123 19z"/>
<path d="M1031 2882 c-19 -9 -46 -33 -60 -52 l-26 -34 30 22 c41 30 101 81 95
82 -3 0 -20 -8 -39 -18z"/>
<path d="M1022 2830 c-72 -61 -72 -61 -72 -112 l0 -51 53 7 c28 4 71 12 93 18
41 10 43 12 73 88 17 44 31 83 31 88 0 9 -54 22 -91 22 -8 0 -48 -27 -87 -60z"/>
<path d="M1875 2873 c-51 -12 -34 -23 36 -22 71 1 73 1 44 14 -31 15 -46 16
-80 8z"/>
<path d="M872 2847 c-31 -33 -27 -39 13 -20 19 9 35 23 35 30 0 20 -24 15 -48
-10z"/>
<path d="M1193 2790 l-32 -82 37 7 c93 16 109 25 157 81 26 30 46 57 44 59 -3
2 -42 7 -89 10 l-85 7 -32 -82z"/>
<path d="M2670 2850 c-30 -3 -46 -10 -48 -21 -1 -8 10 -49 26 -90 l28 -74 62
-17 c34 -9 75 -19 92 -23 l30 -7 0 54 c0 52 -2 56 -52 104 -82 77 -88 80 -138
74z"/>
<path d="M2750 2856 c0 -2 26 -25 57 -52 55 -47 56 -48 38 -16 -16 27 -95 84
-95 68z"/>
<path d="M1386 2804 c-21 -25 -36 -47 -34 -49 15 -15 186 57 204 86 3 5 -25 9
-63 9 l-69 0 -38 -46z"/>
<path d="M1565 2820 l-30 -21 30 7 c17 4 48 13 70 20 l40 12 -40 1 c-25 1 -51
-7 -70 -19z"/>
<path d="M1615 2801 c-127 -35 -152 -45 -267 -115 -111 -68 -139 -91 -230
-189 -94 -102 -110 -124 -168 -242 -59 -121 -65 -140 -90 -283 -26 -148 -27
-156 -14 -270 20 -172 26 -195 86 -331 47 -105 69 -141 148 -238 83 -102 107
-124 217 -198 114 -78 135 -88 278 -135 l154 -51 158 3 c142 3 170 7 278 37
126 34 142 42 295 137 77 47 116 81 196 169 89 98 107 124 163 240 59 120 66
141 90 282 l27 151 -18 149 c-17 138 -22 157 -75 283 -52 121 -67 147 -153
252 -86 105 -109 126 -220 203 -116 79 -135 88 -265 129 -134 42 -147 44 -295
49 l-155 6 -140 -38z m-27 -1098 c-100 -100 -114 -111 -128 -98 -13 14 -4 26
83 113 l97 97 -97 97 c-85 85 -95 99 -83 113 12 14 26 4 127 -97 l113 -113
-112 -112z m-281 312 c2 -6 -40 -53 -92 -105 l-95 -95 97 -97 c85 -85 95 -99
83 -113 -12 -14 -26 -4 -127 97 l-113 113 108 108 c98 98 130 119 139 92z
m704 -6 c-13 -5 -36 -18 -52 -30 -26 -18 -29 -27 -29 -71 0 -28 6 -59 13 -68
6 -9 0 -3 -15 12 -32 32 -34 45 -14 93 14 33 73 74 106 74 8 0 4 -5 -9 -10z
m827 -27 c20 -10 38 -24 40 -31 3 -8 -10 -3 -28 10 -26 20 -43 24 -98 23 -89
-1 -142 -31 -210 -119 l-23 -30 22 43 c31 58 76 89 179 126 24 9 79 -2 118
-22z m-659 -44 c-9 -16 -9 -42 1 -107 11 -84 11 -87 -15 -146 -15 -33 -34 -69
-43 -80 -10 -11 2 -3 26 18 63 55 64 45 2 -18 -30 -30 -57 -55 -61 -55 -4 0 0
19 9 43 8 23 18 94 21 157 6 102 10 121 34 163 28 46 48 67 26 25z m202 -15
c-8 -20 -9 -43 -1 -82 18 -94 11 -132 -39 -226 -2 -5 4 -3 15 5 19 14 19 14 0
-7 -10 -13 -23 -20 -29 -16 -5 3 -7 1 -4 -4 4 -6 -3 -19 -15 -29 -21 -19 -21
-19 -14 1 23 57 27 89 25 180 -3 97 -2 102 30 158 34 59 53 71 32 20z m526
-95 c-2 -13 -4 -3 -4 22 0 25 2 35 4 23 2 -13 2 -33 0 -45z m-396 -16 c-5 -10
-18 -25 -28 -33 -12 -10 -11 -5 6 19 24 35 38 43 22 14z m-231 -46 l-21 -21
18 32 c10 18 20 28 22 22 2 -6 -6 -21 -19 -33z m161 -49 l-24 -22 19 27 c10
14 21 24 23 22 3 -3 -6 -15 -18 -27z m423 12 c-10 -11 -28 -26 -39 -31 -14 -8
-12 -2 9 21 33 34 61 44 30 10z m-214 1 c0 -5 -2 -10 -4 -10 -3 0 -8 5 -11 10
-3 6 -1 10 4 10 6 0 11 -4 11 -10z m-410 -24 c0 -2 -8 -10 -17 -17 -16 -13
-17 -12 -4 4 13 16 21 21 21 13z m475 -24 c-3 -3 -11 0 -18 7 -9 10 -8 11 6 5
10 -3 15 -9 12 -12z m52 -8 c-3 -3 -12 -4 -19 -1 -8 3 -5 6 6 6 11 1 17 -2 13
-5z"/>
<path d="M2447 2831 l-29 -6 44 -57 c39 -51 49 -58 112 -77 38 -12 71 -20 72
-18 2 2 -9 40 -23 85 l-27 82 -61 -1 c-33 -1 -73 -4 -88 -8z"/>
<path d="M2150 2826 c0 -2 28 -13 63 -25 l62 -21 -28 25 c-18 16 -40 25 -63
25 -19 0 -34 -2 -34 -4z"/>
<path d="M2260 2826 c0 -2 24 -20 53 -39 52 -36 132 -66 143 -54 4 3 -11 26
-31 51 -37 46 -38 46 -101 46 -35 0 -64 -2 -64 -4z"/>
<path d="M2907 2824 c-14 -14 -7 -29 24 -47 18 -10 33 -16 35 -14 2 2 -9 18
-24 36 -15 18 -30 29 -35 25z"/>
<path d="M860 2790 c-32 -21 -50 -42 -67 -81 -13 -29 -21 -54 -19 -57 13 -12
156 136 156 162 0 13 -26 4 -70 -24z"/>
<path d="M2890 2770 c0 -37 139 -199 147 -173 7 19 -46 120 -71 136 -14 9 -37
24 -51 33 -18 12 -25 13 -25 4z"/>
<path d="M881 2703 c-23 -25 -40 -48 -37 -50 2 -2 22 -1 45 3 41 7 41 7 41 50
0 24 -2 44 -4 44 -2 0 -23 -21 -45 -47z"/>
<path d="M1350 2733 c-29 -6 -47 -19 -62 -46 -9 -18 -5 -17 38 8 27 15 53 32
59 36 10 10 8 10 -35 2z"/>
<path d="M745 2705 c-27 -26 -31 -40 -15 -50 5 -3 18 12 30 35 23 46 19 50
-15 15z"/>
<path d="M1200 2696 c-41 -10 -47 -16 -73 -69 -16 -33 -27 -60 -25 -62 8 -8
108 63 142 103 42 47 38 50 -44 28z"/>
<path d="M2430 2707 c0 -2 25 -21 56 -41 53 -36 64 -26 17 16 -17 16 -73 35
-73 25z"/>
<path d="M2880 2655 c0 -40 3 -45 23 -45 12 0 33 -3 46 -7 l23 -6 -18 29 c-18
30 -59 74 -69 74 -3 0 -5 -20 -5 -45z"/>
<path d="M1033 2662 l-82 -15 -6 -56 c-3 -31 -8 -71 -11 -88 -3 -18 -2 -33 1
-33 4 0 35 16 68 34 57 32 64 40 91 101 16 36 27 67 25 69 -2 1 -41 -4 -86
-12z"/>
<path d="M2566 2634 c32 -39 79 -77 131 -108 7 -4 3 19 -11 56 -23 60 -26 64
-72 80 -83 28 -90 24 -48 -28z"/>
<path d="M3040 2668 c0 -21 25 -68 36 -68 22 0 17 24 -11 50 -14 13 -25 21
-25 18z"/>
<path d="M858 2631 c-32 -5 -44 -16 -88 -78 -27 -39 -50 -80 -50 -91 0 -17 18
-81 26 -90 1 -2 39 15 83 38 89 46 80 29 96 178 6 58 9 56 -67 43z"/>
<path d="M2690 2634 c0 -4 10 -34 22 -66 21 -60 39 -78 120 -127 l37 -22 -6
88 c-3 48 -7 89 -8 91 -2 2 -32 10 -66 18 -35 8 -72 17 -81 20 -10 3 -18 2
-18 -2z"/>
<path d="M768 2608 c-17 -14 -58 -78 -58 -91 0 -16 19 4 49 53 33 53 34 57 9
38z"/>
<path d="M2880 2548 c0 -23 3 -66 6 -94 l6 -51 80 -46 79 -47 10 28 c25 66 23
79 -26 159 -27 43 -49 79 -49 79 -1 1 -25 5 -53 9 l-53 7 0 -44z"/>
<path d="M3051 2505 c23 -36 43 -65 45 -65 8 0 -21 69 -43 98 -42 57 -44 34
-2 -33z"/>
<path d="M1106 2541 c-16 -11 -35 -34 -43 -53 l-14 -33 36 35 c32 30 62 70 53
70 -2 0 -16 -9 -32 -19z"/>
<path d="M614 2515 c-20 -49 -18 -52 16 -20 33 31 39 55 14 55 -8 0 -22 -16
-30 -35z"/>
<path d="M2689 2482 c17 -22 37 -45 45 -52 14 -11 14 -9 5 19 -11 30 -52 71
-71 71 -5 0 4 -17 21 -38z"/>
<path d="M627 2465 c-27 -32 -40 -60 -48 -101 -17 -93 5 -82 60 31 34 68 47
115 34 115 -5 0 -26 -20 -46 -45z"/>
<path d="M982 2473 c-50 -29 -57 -41 -65 -112 l-6 -55 40 40 c39 38 69 84 83
132 9 27 2 27 -52 -5z"/>
<path d="M3146 2482 c-3 -5 8 -24 24 -43 33 -38 37 -34 16 16 -15 34 -29 44
-40 27z"/>
<path d="M2765 2439 c18 -55 46 -106 81 -144 l36 -40 -7 70 c-4 39 -12 73 -18
77 -7 4 -32 19 -56 34 l-43 26 7 -23z"/>
<path d="M3120 2442 c0 -37 76 -202 93 -202 9 0 9 46 -2 91 -12 52 -91 148
-91 111z"/>
<path d="M666 2389 c-14 -29 -24 -54 -22 -57 3 -2 21 1 41 8 35 12 37 13 30
49 -10 56 -20 57 -49 0z"/>
<path d="M817 2382 l-69 -36 6 -38 c4 -21 11 -62 17 -90 l11 -52 53 55 c46 48
53 61 59 109 4 30 10 63 12 73 8 25 -12 21 -89 -21z"/>
<path d="M535 2349 c-16 -31 -13 -71 5 -53 10 11 25 84 16 84 -3 0 -13 -14
-21 -31z"/>
<path d="M2895 2309 c6 -59 13 -81 35 -109 33 -41 69 -75 74 -69 1 2 12 39 24
81 l20 77 -71 42 c-40 23 -76 44 -81 47 -4 2 -5 -28 -1 -69z"/>
<path d="M3086 2356 c-3 -13 -9 -31 -12 -40 -4 -11 5 -20 30 -32 20 -10 38
-15 42 -12 7 8 -36 108 -46 108 -4 0 -11 -11 -14 -24z"/>
<path d="M677 2316 c-47 -20 -47 -20 -76 -110 l-30 -91 24 -40 c12 -21 27 -41
32 -42 5 -2 38 23 74 55 l63 59 -13 78 c-19 118 -17 115 -74 91z"/>
<path d="M926 2290 c-16 -20 -26 -43 -26 -63 1 -30 3 -28 31 27 16 32 28 61
25 63 -2 2 -15 -10 -30 -27z"/>
<path d="M3234 2307 c3 -10 6 -32 6 -48 0 -19 5 -29 15 -29 22 0 18 41 -6 70
-15 18 -19 20 -15 7z"/>
<path d="M578 2247 c-16 -32 -33 -107 -24 -107 6 0 49 130 44 135 -2 2 -11
-10 -20 -28z"/>
<path d="M3041 2188 l-21 -92 62 -63 c34 -35 65 -63 69 -63 3 0 19 19 34 41
24 37 26 46 17 78 -6 20 -18 61 -26 92 -15 50 -21 57 -61 77 -25 12 -47 22
-49 22 -2 0 -13 -41 -25 -92z"/>
<path d="M2840 2264 c0 -14 39 -104 45 -104 3 0 5 12 5 28 0 25 -49 100 -50
76z"/>
<path d="M831 2193 c-41 -44 -43 -48 -37 -91 3 -25 6 -53 6 -63 0 -64 64 64
74 149 4 28 5 52 3 52 -2 0 -23 -21 -46 -47z"/>
<path d="M3196 2190 c4 -19 12 -53 19 -75 l13 -40 1 40 c0 22 -9 55 -20 75
l-20 35 7 -35z"/>
<path d="M2913 2135 c6 -59 42 -165 57 -165 4 0 10 19 14 43 4 23 9 51 11 62
3 14 -10 36 -41 70 l-46 50 5 -60z"/>
<path d="M466 2148 c-3 -13 -6 -34 -5 -48 0 -23 1 -23 19 10 11 19 19 41 20
48 0 21 -27 13 -34 -10z"/>
<path d="M492 2095 c-22 -46 -29 -129 -13 -169 9 -24 14 -16 35 53 17 57 22
161 8 161 -4 0 -18 -20 -30 -45z"/>
<path d="M697 2061 l-59 -57 38 -77 c21 -42 41 -77 44 -77 3 0 20 29 38 65 34
64 34 65 22 135 -6 38 -15 70 -18 69 -4 0 -33 -26 -65 -58z"/>
<path d="M3291 2101 c-10 -7 -9 -16 8 -47 l20 -39 1 42 c0 44 -8 57 -29 44z"/>
<path d="M551 2043 c-13 -44 -14 -83 -3 -83 4 0 20 10 36 23 28 23 28 24 12
54 -24 47 -34 48 -45 6z"/>
<path d="M3002 2014 c-7 -31 -12 -68 -12 -80 0 -24 49 -134 60 -134 3 0 25 32
48 72 l43 71 -64 65 -64 64 -11 -58z"/>
<path d="M3250 2024 c0 -69 22 -174 35 -174 12 0 25 51 25 102 0 30 -39 118
-52 118 -4 0 -8 -21 -8 -46z"/>
<path d="M826 2002 c-13 -29 -15 -47 -8 -73 8 -33 9 -32 21 35 7 37 10 70 8
72 -2 2 -12 -13 -21 -34z"/>
<path d="M3186 1979 l-18 -31 31 -31 31 -32 0 47 c0 48 -7 78 -19 78 -4 0 -15
-14 -25 -31z"/>
<path d="M2935 1955 c3 -22 5 -53 5 -70 0 -23 3 -27 10 -15 14 21 12 60 -6 95
l-14 30 5 -40z"/>
<path d="M437 1966 c-11 -27 -8 -76 3 -76 17 0 22 25 13 61 -7 27 -11 30 -16
15z"/>
<path d="M574 1951 c-29 -26 -31 -33 -37 -123 l-6 -95 37 -36 c21 -21 41 -37
44 -37 3 0 26 36 52 81 l45 81 -39 79 c-22 43 -46 79 -53 79 -6 0 -26 -13 -43
-29z"/>
<path d="M779 1910 c-50 -78 -51 -85 -22 -145 15 -30 30 -55 34 -55 13 0 22
128 13 177 l-9 47 -16 -24z"/>
<path d="M3127 1883 c-13 -21 -34 -56 -46 -79 l-23 -40 42 -80 c23 -43 43 -81
45 -83 2 -1 22 12 44 30 l41 32 0 101 0 101 -34 28 c-19 15 -37 27 -40 27 -3
0 -16 -17 -29 -37z"/>
<path d="M3317 1873 c-5 -41 4 -60 23 -48 7 4 9 19 5 38 -11 49 -22 53 -28 10z"/>
<path d="M504 1868 c-9 -41 -7 -85 6 -107 6 -11 9 8 10 62 0 42 -2 77 -4 77
-3 0 -8 -15 -12 -32z"/>
<path d="M2976 1872 c-13 -21 -19 -155 -9 -192 l10 -35 30 60 30 60 -27 60
c-17 38 -29 55 -34 47z"/>
<path d="M3251 1765 c0 -53 3 -73 9 -60 5 11 9 38 9 60 0 22 -4 49 -9 60 -6
13 -9 -7 -9 -60z"/>
<path d="M677 1727 c-20 -34 -37 -68 -39 -74 -3 -11 100 -133 112 -133 4 0 13
32 19 71 13 69 12 73 -14 135 -15 35 -31 64 -35 64 -5 0 -24 -28 -43 -63z"/>
<path d="M426 1751 c-8 -13 5 -74 14 -64 4 4 10 23 13 41 5 24 3 32 -8 32 -7
0 -16 -4 -19 -9z"/>
<path d="M463 1681 c-8 -54 -7 -64 18 -118 21 -46 28 -54 34 -40 15 36 -13
217 -34 217 -5 0 -13 -27 -18 -59z"/>
<path d="M3011 1675 c-29 -59 -31 -71 -25 -124 10 -93 15 -94 84 -25 l61 60
-37 70 c-20 38 -40 72 -43 77 -4 4 -22 -22 -40 -58z"/>
<path d="M808 1691 c-3 -17 3 -43 14 -63 l19 -33 -5 40 c-3 22 -6 50 -6 63 0
32 -17 27 -22 -7z"/>
<path d="M534 1644 c10 -74 19 -82 46 -39 l22 36 -23 25 c-37 39 -53 32 -45
-22z"/>
<path d="M3310 1673 c0 -10 3 -29 7 -42 6 -23 7 -23 14 -5 13 33 10 64 -6 64
-8 0 -15 -8 -15 -17z"/>
<path d="M3277 1673 c-27 -43 -50 -223 -29 -223 18 0 52 92 51 138 -1 60 -12
101 -22 85z"/>
<path d="M2937 1655 c-3 -11 -8 -40 -12 -65 l-6 -45 20 36 c15 27 18 44 12 65
-7 25 -9 26 -14 9z"/>
<path d="M3188 1607 c-34 -27 -34 -31 -7 -69 26 -36 33 -28 44 45 8 53 2 56
-37 24z"/>
<path d="M585 1579 l-27 -42 23 -91 c23 -86 26 -92 64 -113 22 -13 45 -23 51
-23 6 0 19 35 29 78 10 42 20 82 22 88 4 11 -113 144 -127 144 -4 0 -20 -19
-35 -41z"/>
<path d="M796 1609 c-3 -7 -10 -36 -16 -62 -10 -46 -9 -50 19 -86 17 -21 38
-44 47 -52 16 -13 17 -10 11 47 -7 64 -52 179 -61 153z"/>
<path d="M451 1533 c-1 -41 13 -63 29 -47 5 5 1 27 -10 49 l-18 40 -1 -42z"/>
<path d="M2928 1517 c-14 -30 -29 -80 -33 -113 l-7 -59 47 45 47 45 -7 60 c-3
33 -10 63 -14 67 -4 5 -19 -16 -33 -45z"/>
<path d="M3073 1501 c-71 -66 -72 -72 -47 -180 l15 -69 47 18 47 17 31 94 31
93 -26 43 c-14 24 -28 43 -31 43 -3 0 -33 -27 -67 -59z"/>
<path d="M541 1465 c-1 -24 7 -52 19 -70 25 -37 25 -26 1 50 l-19 60 -1 -40z"/>
<path d="M3285 1467 c-14 -27 -16 -40 -8 -48 15 -15 35 24 31 59 -4 27 -4 27
-23 -11z"/>
<path d="M747 1399 c-9 -41 -18 -81 -21 -89 -4 -11 15 -27 66 -55 40 -22 76
-41 80 -43 7 -3 1 93 -8 133 -2 11 -26 44 -52 74 l-48 54 -17 -74z"/>
<path d="M3205 1428 c-39 -108 -44 -135 -18 -98 9 13 20 43 23 67 7 42 4 56
-5 31z"/>
<path d="M880 1402 c0 -21 10 -42 30 -64 l31 -33 -26 60 c-32 73 -35 76 -35
37z"/>
<path d="M2931 1359 c-39 -42 -51 -63 -56 -99 -3 -25 -8 -58 -11 -73 l-6 -28
81 41 c45 22 81 41 81 43 0 12 -31 162 -35 165 -2 3 -27 -19 -54 -49z"/>
<path d="M2860 1386 c0 -2 -11 -30 -25 -62 l-26 -59 31 33 c19 21 30 43 30 62
0 17 -2 30 -5 30 -3 0 -5 -2 -5 -4z"/>
<path d="M496 1352 c-2 -4 3 -23 12 -42 l16 -35 4 28 c2 16 1 35 -2 43 -6 15
-22 19 -30 6z"/>
<path d="M550 1317 c0 -19 3 -48 6 -64 7 -33 78 -122 89 -111 15 14 -58 186
-86 203 -5 4 -9 -9 -9 -28z"/>
<path d="M620 1308 c1 -21 38 -98 48 -98 6 0 13 11 16 24 3 13 8 30 11 38 4 9
-7 20 -30 31 -43 20 -45 21 -45 5z"/>
<path d="M890 1303 c0 -11 3 -41 6 -67 6 -42 11 -49 56 -77 28 -16 52 -28 55
-25 9 9 -56 132 -86 160 -28 27 -31 28 -31 9z"/>
<path d="M3148 1228 c-40 -70 -64 -136 -53 -146 8 -8 73 64 85 93 13 34 22
115 13 115 -5 0 -25 -28 -45 -62z"/>
<path d="M3214 1255 c-8 -47 1 -54 20 -16 20 37 20 51 1 51 -8 0 -17 -14 -21
-35z"/>
<path d="M702 1231 c-7 -21 -12 -45 -12 -53 0 -22 91 -168 104 -168 6 -1 31
-5 55 -9 l44 -9 -7 91 c-3 51 -12 97 -19 104 -14 14 -136 83 -146 83 -4 0 -13
-17 -19 -39z"/>
<path d="M2805 1228 c-40 -43 -83 -123 -73 -134 3 -3 29 7 56 23 49 27 51 30
58 80 3 28 4 57 2 63 -2 7 -22 -8 -43 -32z"/>
<path d="M3076 1244 c-24 -14 -27 -20 -22 -46 3 -17 6 -34 6 -39 0 -30 37 17
59 74 12 32 1 34 -43 11z"/>
<path d="M2938 1178 c-85 -45 -82 -41 -94 -160 -6 -68 -6 -68 19 -68 68 0 85
11 137 85 27 40 50 81 50 90 0 24 -22 95 -29 94 -3 0 -41 -19 -83 -41z"/>
<path d="M581 1138 c11 -40 20 -49 38 -39 12 8 10 15 -10 39 -31 40 -40 40
-28 0z"/>
<path d="M906 1083 c3 -43 7 -83 9 -89 2 -6 30 -16 62 -23 32 -6 69 -14 82
-18 21 -5 23 -3 16 18 -26 87 -48 119 -103 154 -31 19 -60 35 -64 35 -4 0 -5
-35 -2 -77z"/>
<path d="M1033 1133 c12 -29 28 -45 61 -64 21 -12 21 -13 -33 59 -30 39 -45
42 -28 5z"/>
<path d="M682 1114 c10 -35 56 -99 65 -90 3 3 -60 112 -71 123 -3 3 0 -12 6
-33z"/>
<path d="M2671 1085 c-49 -53 -52 -63 -10 -38 17 10 37 33 45 51 7 17 12 32
10 32 -2 0 -22 -20 -45 -45z"/>
<path d="M2763 1083 c-56 -33 -64 -42 -89 -100 -14 -35 -24 -66 -22 -68 3 -3
41 3 86 12 l81 17 6 56 c3 30 8 70 11 88 3 17 1 32 -3 32 -4 -1 -36 -17 -70
-37z"/>
<path d="M3132 1083 c-25 -27 -23 -65 2 -44 16 13 39 72 28 70 -4 -1 -17 -12
-30 -26z"/>
<path d="M3017 1028 c-40 -58 -41 -75 -3 -36 24 23 51 77 43 84 -2 2 -20 -20
-40 -48z"/>
<path d="M1081 1008 c11 -29 25 -58 29 -63 10 -12 109 -40 116 -33 15 15 -127
148 -158 148 -4 0 2 -24 13 -52z"/>
<path d="M2620 999 c-36 -21 -130 -108 -130 -120 0 -3 29 1 64 9 68 16 66 15
102 100 17 38 11 39 -36 11z"/>
<path d="M680 976 c0 -16 40 -69 47 -62 9 9 -21 76 -34 76 -7 0 -13 -6 -13
-14z"/>
<path d="M736 968 c17 -58 43 -95 87 -126 26 -19 50 -32 53 -29 10 10 -29 71
-79 124 -54 57 -72 66 -61 31z"/>
<path d="M810 971 c0 -5 18 -28 40 -52 l39 -44 1 46 c0 34 -4 49 -16 53 -23 9
-64 7 -64 -3z"/>
<path d="M910 909 l0 -54 69 -61 c68 -61 70 -62 118 -57 26 3 50 8 53 10 2 2
-9 42 -24 89 l-29 84 -51 15 c-28 9 -70 18 -93 22 l-43 6 0 -54z"/>
<path d="M1252 921 c20 -24 85 -57 95 -47 4 3 -104 76 -113 76 -3 0 5 -13 18
-29z"/>
<path d="M2878 932 c-38 -3 -38 -3 -38 -48 l0 -45 23 17 c28 22 60 62 55 72
-2 4 -20 6 -40 4z"/>
<path d="M2945 902 c-51 -47 -108 -119 -103 -132 1 -5 27 5 56 21 50 30 77 65
96 127 10 31 -3 27 -49 -16z"/>
<path d="M3006 898 c-7 -18 -12 -35 -10 -37 7 -8 54 42 54 56 0 26 -30 12 -44
-19z"/>
<path d="M2430 884 c-53 -35 -54 -35 -20 -30 19 4 48 20 65 36 40 40 22 37
-45 -6z"/>
<path d="M2704 903 l-71 -15 -32 -76 c-37 -91 -38 -100 -8 -107 66 -14 77 -11
152 50 l74 60 1 53 c0 60 2 60 -116 35z"/>
<path d="M1122 898 c3 -7 16 -43 29 -80 l24 -68 87 0 c49 0 88 3 88 8 0 4 -20
32 -45 63 -39 49 -52 58 -103 73 -70 19 -86 20 -80 4z"/>
<path d="M2523 863 c-55 -13 -67 -20 -109 -69 -25 -30 -45 -57 -43 -59 8 -7
164 -22 171 -16 15 14 65 161 54 160 -6 -1 -39 -8 -73 -16z"/>
<path d="M1342 805 c45 -58 54 -61 131 -49 l37 7 -40 29 c-41 31 -127 68 -156
68 -10 0 -2 -17 28 -55z"/>
<path d="M2355 821 c-50 -14 -152 -69 -143 -76 2 -1 31 -5 64 -8 l61 -6 43 50
c23 28 41 52 39 53 -2 2 -31 -4 -64 -13z"/>
<path d="M808 813 c18 -33 49 -56 58 -42 7 12 -10 29 -49 50 -16 9 -17 8 -9
-8z"/>
<path d="M910 825 c0 -26 92 -108 105 -93 1 2 -22 25 -51 51 -30 27 -54 46
-54 42z"/>
<path d="M1520 780 c16 -12 40 -19 65 -19 l40 1 -50 18 c-67 25 -87 25 -55 0z"/>
<path d="M2163 772 c-57 -16 -70 -32 -27 -32 23 0 94 35 94 46 0 5 -6 4 -67
-14z"/>
<path d="M2758 742 c-61 -50 -69 -66 -17 -36 26 16 91 85 78 84 -2 -1 -30 -22
-61 -48z"/>
<path d="M2883 762 c-32 -15 -42 -35 -25 -46 9 -6 69 51 61 58 -2 2 -19 -3
-36 -12z"/>
<path d="M1263 733 c-46 -2 -83 -5 -83 -7 0 -1 7 -25 15 -53 15 -51 16 -52
102 -93 l87 -41 48 22 47 22 -53 76 c-30 42 -60 76 -67 77 -8 0 -51 -1 -96 -3z"/>
<path d="M1400 734 c0 -3 21 -35 47 -72 26 -37 48 -69 49 -70 4 -6 164 52 164
59 0 3 -27 25 -59 48 -56 39 -63 41 -130 41 -39 0 -71 -3 -71 -6z"/>
<path d="M1618 711 c60 -52 73 -55 137 -36 32 9 54 20 49 24 -20 19 -111 41
-163 41 l-56 -1 33 -28z"/>
<path d="M1794 732 c10 -17 71 -25 103 -14 26 10 24 10 -24 11 -28 1 -59 4
-69 8 -11 4 -15 3 -10 -5z"/>
<path d="M1950 712 l-55 -18 62 -23 62 -23 55 34 c31 18 56 36 56 41 0 13
-125 6 -180 -11z"/>
<path d="M1080 712 c0 -13 30 -37 69 -57 l34 -17 -7 32 c-3 18 -6 36 -6 41 0
5 -20 9 -45 9 -25 0 -45 -4 -45 -8z"/>
<path d="M2106 680 l-60 -39 50 -21 c27 -12 64 -28 81 -35 l33 -14 54 67 c35
44 49 70 42 74 -6 4 -40 8 -76 8 -59 0 -70 -4 -124 -40z"/>
<path d="M2287 638 l-57 -73 50 -24 49 -25 78 34 c43 18 83 37 89 42 12 9 40
96 33 102 -2 2 -45 7 -95 11 l-90 7 -57 -74z"/>
<path d="M1018 673 c43 -60 69 -80 121 -93 29 -7 54 -10 57 -7 8 7 -86 82
-133 106 -56 28 -68 27 -45 -6z"/>
<path d="M965 680 c-9 -14 2 -28 37 -46 l31 -16 -22 31 c-27 37 -38 45 -46 31z"/>
<path d="M2542 653 c-6 -20 -10 -39 -8 -41 6 -5 81 35 94 51 10 12 8 16 -10
21 -50 13 -64 7 -76 -31z"/>
<path d="M1772 661 c-28 -8 -51 -19 -50 -23 8 -19 132 -107 142 -100 39 24
126 88 126 93 0 10 -115 49 -141 48 -13 -1 -48 -9 -77 -18z"/>
<path d="M2634 632 c-67 -37 -125 -82 -119 -92 3 -5 28 -2 57 5 36 10 64 27
95 57 67 65 54 77 -33 30z"/>
<path d="M2711 619 c-12 -17 -21 -32 -19 -34 8 -8 69 36 66 47 -8 23 -24 18
-47 -13z"/>
<path d="M1600 604 c-36 -14 -71 -27 -78 -29 -9 -3 -5 -17 15 -47 15 -24 28
-44 28 -45 1 -2 45 -10 99 -19 l97 -17 35 34 c19 18 34 36 34 39 0 11 -136
110 -151 109 -8 0 -43 -11 -79 -25z"/>
<path d="M1940 568 l-73 -52 42 -36 42 -36 67 7 c111 13 127 18 141 42 8 12
20 32 28 43 13 21 11 23 -67 53 -45 17 -87 31 -94 31 -7 0 -45 -23 -86 -52z"/>
<path d="M1249 564 c17 -14 47 -28 68 -30 35 -5 33 -3 -25 25 -77 38 -82 38
-43 5z"/>
<path d="M2465 554 c-16 -8 -50 -23 -75 -34 l-45 -20 40 6 c35 5 115 46 115
59 0 6 1 7 -35 -11z"/>
<path d="M1124 551 c13 -20 64 -42 72 -30 9 15 -5 26 -45 34 -23 5 -31 4 -27
-4z"/>
<path d="M1448 548 c-16 -5 -28 -13 -28 -18 0 -9 73 -40 95 -40 19 0 19 5 -2
41 -19 31 -24 33 -65 17z"/>
<path d="M2190 508 c-10 -18 -18 -34 -16 -35 5 -5 96 16 114 26 12 7 9 12 -16
25 -45 23 -60 20 -82 -16z"/>
<path d="M2540 521 c-14 -4 -25 -13 -25 -21 0 -23 22 -22 51 4 30 26 22 31
-26 17z"/>
<path d="M1350 493 c0 -5 22 -23 48 -41 45 -30 54 -33 113 -30 l64 3 -50 26
c-63 33 -175 60 -175 42z"/>
<path d="M1816 471 l-27 -28 34 -6 c18 -3 49 -2 67 2 l33 6 -32 28 c-18 15
-36 27 -40 27 -4 0 -20 -13 -35 -29z"/>
<path d="M1314 468 c-9 -15 24 -38 55 -38 24 0 24 1 -9 25 -39 29 -37 28 -46
13z"/>
<path d="M2300 473 c-54 -9 -160 -47 -157 -57 2 -6 27 -12 56 -14 45 -3 61 2
107 30 73 44 71 54 -6 41z"/>
<path d="M1580 456 c0 -11 73 -36 107 -36 50 0 32 16 -27 24 -28 4 -57 9 -65
12 -8 4 -15 3 -15 0z"/>
<path d="M2343 430 c-42 -25 -41 -30 1 -20 42 9 58 19 51 31 -9 13 -16 11 -52
-11z"/>
<path d="M2015 431 l-40 -7 36 -7 c23 -5 49 -2 75 7 l39 15 -35 -1 c-19 -1
-53 -4 -75 -7z"/>
<path d="M1800 412 c-79 -4 -82 -18 -11 -39 57 -18 67 -18 121 -5 54 13 80 31
48 33 -7 0 -33 3 -58 7 -25 4 -70 6 -100 4z"/>
<path d="M1510 385 c33 -19 70 -19 70 0 0 11 -12 15 -47 15 -47 -1 -47 -1 -23
-15z"/>
<path d="M2123 377 c-12 -20 15 -28 48 -14 l34 14 -38 4 c-21 3 -41 1 -44 -4z"/>
<path d="M1710 355 c0 -11 12 -15 48 -14 l47 1 -30 13 c-40 19 -65 18 -65 0z"/>
<path d="M1935 356 c-32 -9 -36 -13 -22 -19 28 -10 65 -9 73 4 12 20 -11 27
-51 15z"/>
</g>
</svg>
